<?xml version="1.0" encoding="utf-8"?>
<!-- Generator: Adobe Illustrator 23.0.3, SVG Export Plug-In . SVG Version: 6.00 Build 0)  -->
<svg version="1.1" id="Layer_1" xmlns="http://www.w3.org/2000/svg" xmlns:xlink="http://www.w3.org/1999/xlink" x="0px" y="0px"
	 viewBox="0 0 850 240" style="enable-background:new 0 0 850 240;" xml:space="preserve">
<style type="text/css">
	.st0{fill:#EE0000;}
	.st1{fill:#FFFFFF;}
</style>
<path class="st0" d="M234.2,112.6c0.1-1.6-0.1-3.1-0.4-4.5l-9.6-41.5c-2.2-9.2-4.2-13.3-20.1-21.4c-12.5-6.3-39.6-16.8-47.6-16.8
	c-7.5,0-9.6,9.5-18.6,9.5s-14.9-7-23.1-7c-8.1,0-12.7,5.2-16.5,15.9c0,0-10.8,30.4-12.2,34.9c-0.2,0.8-0.3,1.6-0.3,2.5
	c0,11.8,45.8,50.7,109,50.7C210.8,134.9,234.2,131.7,234.2,112.6L234.2,112.6z M236.6,120.1c1.1,4.3,1.9,8.6,2.2,13
	c0,18-20.2,28-46.8,28c-60,0-112.4-35.1-112.4-58.4c0-3.3,0.7-6.5,2-9.6C60.2,94.5,32,98.5,32,123c0,40.4,95.6,90.2,171.5,90.2
	c58,0,72.7-26.3,72.7-47.1c0-16.3-14-34.8-39.5-45.9"/>
<path d="M236.7,120.2c1.2,4.3,1.9,8.6,2.2,13c0,18-20.2,28-46.8,28c-60,0-112.5-35.1-112.5-58.4c0-3.3,0.6-6.5,2-9.6l4.6-11.4
	l-0.3,2.4c0,11.9,46.6,50.7,109,50.7c15.9,0,39.3-4.1,39.3-22.3c0-1.6-0.1-3.1-0.4-4.5L236.7,120.2z"/>
<path class="st1" d="M775.2,146.7c0,15.3,9.2,22.8,26,22.8c5.2-0.1,10.3-0.9,15.3-2.2v-17.7c-3.2,1-6.5,1.5-9.9,1.5
	c-6.9,0-9.4-2.2-9.4-8.7v-27.2h20V97h-20V73.9l-22,4.7V97h-14.4v18.2h14.4L775.2,146.7L775.2,146.7z M713.4,169.7
	c7.7,0,13.9-1.6,19.7-5.5v4.3h21.6v-45.8c0-17.5-11.7-27-31.3-27c-11.6,0.1-23,2.8-33.4,7.8l7.8,16.1c6.8-3.3,14.2-5.3,21.7-5.7
	c9,0,13.6,3.5,13.6,10.7v3.5c-5.3-1.4-10.7-2.1-16.2-2c-18.4,0-29.5,7.7-29.5,21.5C687.4,160.1,697.4,169.7,713.4,169.7L713.4,169.7
	z M708.2,147.1c0-4.7,4.8-7,11.9-7c4.8,0,9.1,0.7,13,1.6v9.2c-4,2.3-8.8,3.4-13.6,3.4C712.4,154.3,708.2,151.6,708.2,147.1
	L708.2,147.1z M595.8,168.5h23.3v-37H658v37h23.3V73.9H658v36.3h-38.9V73.9h-23.3V168.5L595.8,168.5z M541,168.5h21.6V69.1L540.7,74
	v26.9c-5.5-3.2-11.8-4.8-18.2-4.8c-20.8,0-37.2,16.1-37.2,36.7c-0.2,20.1,15.9,36.6,36,36.8c0.2,0,0.3,0,0.5,0
	c6.9,0,13.6-2.2,19.2-6.3v5.3V168.5z M506.8,132.7c-0.1-9.9,7.9-18.1,17.9-18.1c0.3,0,0.6,0,0.9,0c5.9,0,11.3,2,15.1,5.5v25
	c-3.9,3.8-9,5.7-15.1,5.7c-10,0.4-18.4-7.4-18.8-17.4C506.8,133.2,506.8,132.9,506.8,132.7L506.8,132.7z M405.5,132.8
	c0,20.8,17,37.1,38.9,37.1c12.1,0,20.8-3.3,29.9-10.9l-14.5-12.8c-3.8,3.7-9,5.7-14.3,5.4c-8.1,0-14.7-4.5-17.6-11.3h51v-5.5
	c0-22.7-15.3-39-36.1-39C421.8,95.8,405.5,112,405.5,132.8z M442.4,113.6c6.9,0,12.7,4.5,15,11.4h-29.9
	C429.7,117.8,435.1,113.6,442.4,113.6z M321.4,168.5h23.3V134h17.7l17.8,34.5h26l-20.7-37.8c10.7-4.5,17.7-15.1,17.7-26.7
	c0-17-13.4-30.1-33.4-30.1h-48.4V168.5z M367.7,93.7c7.7,0,12,5,12,10.7c0,5.8-4.3,10.7-12,10.7h-23V93.7H367.7z"/>
</svg>
